<svg xmlns="http://www.w3.org/2000/svg" version="1.1" xmlns:xlink="http://www.w3.org/1999/xlink" xmlns:svgjs="http://svgjs.dev/svgjs" width="1000" height="1000" viewBox="0 0 1000 1000"><g transform="matrix(1,0,0,1,0,0)"><svg viewBox="0 0 280 280" data-background-color="#ffffff" preserveAspectRatio="xMidYMid meet" height="1000" width="1000" xmlns="http://www.w3.org/2000/svg" xmlns:xlink="http://www.w3.org/1999/xlink"><defs></defs><g id="tight-bounds" transform="matrix(1,0,0,1,0,0)"><svg viewBox="0 0 280 280" height="280" width="280"><g><svg viewBox="0 0 280 280" height="280" width="280"><g><svg viewBox="0 0 280 280" height="280" width="280"><g><svg viewBox="0 0 280 280" height="280" width="280"><g><svg viewBox="0 0 280 280" height="280" width="280"><g transform="matrix(1,0,0,1,73.94178630557448,74.00336708925556)"><svg viewBox="0 0 132.11642738885104 131.99326582148888" height="131.99326582148888" width="132.11642738885104"><g><circle r="66" cx="65.99663291074444" cy="65.99663291074444" fill="#ffb500" data-fill-palette-color="accent"></circle></g></svg></g><path d="M15.887 106.79v0c-1.951-0.788-3.591-1.866-4.921-3.234-1.334-1.376-2.321-2.946-2.963-4.708-0.639-1.768-0.913-3.686-0.822-5.754 0.093-2.074 0.585-4.213 1.475-6.416v0c0.887-2.197 2.019-4.077 3.395-5.64 1.373-1.557 2.904-2.75 4.592-3.579 1.685-0.823 3.486-1.266 5.401-1.33 1.907-0.06 3.836 0.304 5.786 1.092v0c1.963 0.793 3.619 1.877 4.968 3.252 1.346 1.381 2.349 2.957 3.009 4.727 0.651 1.773 0.939 3.701 0.864 5.782-0.083 2.085-0.569 4.226-1.456 6.423v0c-0.89 2.203-2.028 4.081-3.413 5.633-1.389 1.543-2.934 2.727-4.634 3.551-1.704 0.815-3.519 1.252-5.448 1.311-1.925 0.053-3.87-0.317-5.833-1.111zM18.005 101.546v0c1.335 0.539 2.633 0.784 3.891 0.734 1.265-0.048 2.447-0.343 3.548-0.886 1.103-0.55 2.092-1.324 2.967-2.324 0.876-0.999 1.59-2.182 2.142-3.548v0c0.554-1.372 0.863-2.722 0.927-4.049 0.064-1.327-0.113-2.565-0.529-3.714-0.414-1.155-1.058-2.192-1.933-3.111-0.868-0.916-1.97-1.644-3.305-2.183v0c-1.335-0.539-2.631-0.78-3.886-0.721-1.255 0.059-2.42 0.365-3.495 0.918-1.073 0.547-2.038 1.324-2.896 2.331-0.851 1.009-1.554 2.2-2.109 3.572v0c-0.552 1.366-0.872 2.708-0.96 4.025-0.082 1.32 0.07 2.555 0.457 3.707 0.389 1.145 1.016 2.171 1.881 3.079 0.865 0.908 1.965 1.631 3.3 2.17zM44.199 78.603l-21.869-17.288 8.792-11.122c1.325-1.677 2.65-2.994 3.974-3.952 1.32-0.953 2.635-1.572 3.944-1.858 1.303-0.29 2.585-0.258 3.845 0.096 1.266 0.358 2.5 1.012 3.703 1.962v0c0.812 0.642 1.509 1.35 2.091 2.123 0.573 0.774 1.008 1.609 1.307 2.505 0.293 0.892 0.437 1.834 0.43 2.828-0.007 0.993-0.18 2.032-0.521 3.116v0l10.758 0.775-4.291 5.428-9.457-0.8-0.105 0.133-5.319 6.697 6.225 4.921zM37.646 66.214l5.371-6.795c0.663-0.838 1.144-1.651 1.445-2.437 0.305-0.782 0.45-1.527 0.433-2.234-0.021-0.702-0.202-1.361-0.543-1.978-0.346-0.612-0.831-1.164-1.456-1.658v0c-1.218-0.963-2.492-1.289-3.821-0.977-1.339 0.313-2.675 1.312-4.009 2.999v0l-5.371 6.795zM65.521 54.674l-16.115-22.747 8.335-5.905c2.437-1.727 4.738-2.962 6.903-3.707 2.166-0.754 4.184-1.057 6.054-0.91 1.871 0.138 3.59 0.698 5.156 1.68 1.56 0.985 2.954 2.344 4.182 4.077v0c1.17 1.652 1.965 3.382 2.385 5.192 0.425 1.806 0.413 3.637-0.038 5.493-0.45 1.856-1.368 3.706-2.754 5.55-1.387 1.853-3.297 3.641-5.729 5.365v0zM67.31 47.416l4.858-3.442c1.376-0.975 2.459-2.006 3.249-3.095 0.787-1.094 1.296-2.212 1.529-3.353 0.233-1.141 0.196-2.295-0.109-3.461-0.3-1.17-0.853-2.324-1.659-3.461v0c-0.79-1.116-1.678-1.996-2.664-2.64-0.984-0.653-2.045-1.049-3.183-1.186-1.134-0.132-2.343 0-3.624 0.396-1.282 0.396-2.61 1.081-3.986 2.055v0l-4.858 3.442zM92.817 37.447l-9.557-26.188 22.296-8.137 1.7 4.658-16.984 6.198 1.908 5.228 15.039-5.488 1.597 4.377-15.039 5.488 2.659 7.286 17.34-6.328 1.693 4.639zM120.847 29.044l-2.294-27.783 14.13-1.166c2.13-0.176 3.997-0.107 5.601 0.207 1.598 0.314 2.947 0.852 4.049 1.613 1.101 0.755 1.953 1.714 2.556 2.876 0.603 1.169 0.967 2.518 1.093 4.046v0c0.085 1.032 0.044 2.024-0.124 2.977-0.175 0.947-0.488 1.835-0.939 2.665-0.452 0.823-1.042 1.571-1.773 2.244-0.73 0.673-1.608 1.255-2.633 1.746v0l6.777 8.391-6.896 0.57-5.87-7.458-0.169 0.014-8.525 0.684 0.653 7.908zM125.428 15.798l8.632-0.712c1.065-0.088 1.987-0.291 2.767-0.608 0.78-0.311 1.423-0.714 1.928-1.208 0.499-0.494 0.857-1.076 1.075-1.748 0.211-0.67 0.284-1.402 0.218-2.195v0c-0.128-1.548-0.759-2.701-1.894-3.46-1.142-0.765-2.785-1.059-4.928-0.882v0l-8.632 0.713zM152.918 28.285l5.553-27.319 14.4 2.927c2.094 0.426 3.866 1.023 5.315 1.792 1.442 0.767 2.584 1.68 3.426 2.738 0.84 1.065 1.382 2.265 1.625 3.602 0.243 1.336 0.207 2.778-0.107 4.327v0c-0.296 1.457-0.814 2.754-1.553 3.89-0.739 1.137-1.705 2.055-2.896 2.754-1.191 0.693-2.608 1.136-4.253 1.33-1.638 0.195-3.508 0.079-5.609-0.348v0l-8.886-1.816-1.473 7.249zM160.907 17.371l8.995 1.829c1.047 0.213 1.99 0.272 2.829 0.179 0.837-0.087 1.57-0.307 2.197-0.661 0.621-0.355 1.131-0.833 1.531-1.436 0.394-0.604 0.673-1.309 0.837-2.116v0c0.329-1.62 0.059-2.989-0.811-4.107-0.87-1.118-2.355-1.891-4.457-2.318v0l-8.995-1.829zM183.982 36.446l12.868-24.729 12.576 6.544c1.896 0.986 3.439 2.04 4.629 3.16 1.184 1.118 2.04 2.292 2.566 3.524 0.529 1.226 0.739 2.491 0.629 3.795-0.113 1.31-0.524 2.646-1.231 4.006v0c-0.478 0.919-1.042 1.736-1.691 2.453-0.653 0.708-1.391 1.293-2.215 1.754-0.821 0.456-1.719 0.774-2.696 0.954-0.977 0.18-2.029 0.205-3.159 0.074v0l1.261 10.712-6.138-3.194-0.992-9.438-0.15-0.078-7.578-3.965-3.662 7.039zM194.918 27.681l7.684 3.998c0.948 0.493 1.836 0.813 2.665 0.96 0.826 0.153 1.584 0.155 2.275 0.006 0.685-0.152 1.299-0.454 1.841-0.906 0.536-0.454 0.987-1.035 1.355-1.741v0c0.717-1.378 0.797-2.69 0.241-3.937-0.559-1.256-1.792-2.38-3.699-3.373v0l-7.684-3.998zM211.869 52.787l17.459-21.732 4.44 3.567-17.459 21.732zM220.948 61.418l21.495-17.75 3.601 4.361 4.046 19.19 7.016-5.794 3.601 4.36-21.495 17.751-3.601-4.361 9.857-8.14-4.084-19.158-16.835 13.902zM244.781 97.537l21.16-8.805-3.951-9.496 4.577-1.905 10.079 24.221-4.577 1.905-3.955-9.504-21.16 8.805zM22.408 176.334v0c1.98-0.804 3.936-1.175 5.866-1.114 1.937 0.059 3.761 0.504 5.474 1.335 1.715 0.837 3.267 2.04 4.657 3.611 1.392 1.577 2.541 3.481 3.448 5.714v0c0.904 2.226 1.406 4.39 1.506 6.49 0.103 2.107-0.17 4.055-0.818 5.845-0.647 1.795-1.644 3.389-2.991 4.782-1.341 1.39-3.002 2.487-4.983 3.29v0c-1.986 0.806-3.957 1.184-5.912 1.132-1.949-0.054-3.79-0.496-5.524-1.325-1.725-0.826-3.294-2.026-4.707-3.601-1.411-1.569-2.568-3.467-3.471-5.694v0c-0.906-2.232-1.401-4.403-1.483-6.511-0.08-2.102 0.21-4.054 0.869-5.854 0.667-1.797 1.681-3.394 3.041-4.791 1.366-1.4 3.042-2.503 5.028-3.309zM24.565 181.647v0c-1.353 0.549-2.472 1.286-3.357 2.212-0.885 0.925-1.534 1.973-1.948 3.144-0.417 1.179-0.591 2.443-0.524 3.791 0.065 1.342 0.378 2.705 0.94 4.088v0c0.562 1.384 1.288 2.582 2.18 3.596 0.891 1.014 1.895 1.792 3.01 2.334 1.112 0.551 2.309 0.853 3.592 0.906 1.282 0.053 2.6-0.196 3.952-0.745v0c1.353-0.549 2.465-1.287 3.335-2.213 0.87-0.926 1.503-1.971 1.898-3.134 0.397-1.157 0.553-2.406 0.467-3.746-0.092-1.338-0.419-2.699-0.98-4.083v0c-0.562-1.384-1.275-2.584-2.139-3.602-0.873-1.021-1.857-1.814-2.954-2.379-1.094-0.559-2.274-0.864-3.542-0.915-1.267-0.051-2.577 0.197-3.93 0.746zM27.622 220.349l22.137-17.559 8.934 11.263c1.345 1.695 2.335 3.307 2.971 4.836 0.636 1.528 0.945 2.97 0.926 4.323-0.019 1.354-0.351 2.612-0.995 3.776-0.644 1.163-1.578 2.23-2.8 3.199v0c-0.822 0.652-1.68 1.172-2.575 1.56-0.9 0.392-1.825 0.63-2.775 0.714-0.945 0.08-1.909 0.002-2.893-0.234-0.979-0.24-1.961-0.651-2.947-1.233v0l-3.265 10.431-4.362-5.499 2.989-9.145-0.105-0.132-5.374-6.807-6.302 5zM41.373 216.761l5.457 6.88c0.676 0.853 1.365 1.518 2.066 1.996 0.705 0.483 1.406 0.795 2.103 0.937 0.701 0.147 1.394 0.123 2.077-0.073 0.684-0.195 1.34-0.542 1.97-1.041v0c1.238-0.982 1.856-2.167 1.856-3.556 0.004-1.384-0.673-2.931-2.03-4.642v0l-5.457-6.88zM53.323 248.398l16.299-23.08 8.466 5.978c2.467 1.742 4.424 3.522 5.87 5.34 1.447 1.818 2.419 3.646 2.916 5.484 0.496 1.829 0.537 3.658 0.124 5.486-0.41 1.823-1.237 3.616-2.482 5.378v0c-1.183 1.675-2.566 3.018-4.149 4.029-1.587 1.016-3.343 1.621-5.267 1.815-1.922 0.203-4.001-0.047-6.236-0.748-2.235-0.701-4.589-1.924-7.062-3.67v0zM60.868 247.656l4.928 3.48c1.399 0.988 2.75 1.674 4.055 2.059 1.31 0.389 2.548 0.499 3.715 0.332 1.168-0.158 2.262-0.58 3.282-1.265 1.011-0.684 1.924-1.603 2.74-2.758v0c0.8-1.133 1.346-2.28 1.636-3.439 0.285-1.164 0.3-2.311 0.043-3.444-0.251-1.128-0.785-2.236-1.601-3.324-0.807-1.09-1.91-2.129-3.309-3.117v0l-4.928-3.48zM85.595 268.217l9.655-26.554 22.615 8.223-1.718 4.725-17.226-6.263-1.925 5.296 15.251 5.545-1.613 4.435-15.251-5.545-2.688 7.392 17.582 6.392-1.712 4.706zM119.09 277.81l2.3-28.161 14.329 1.17c2.157 0.176 4.01 0.554 5.561 1.134 1.551 0.58 2.814 1.339 3.79 2.277 0.976 0.939 1.668 2.041 2.077 3.306 0.409 1.265 0.551 2.675 0.424 4.23v0c-0.085 1.045-0.292 2.027-0.62 2.946-0.329 0.925-0.787 1.764-1.375 2.515-0.587 0.745-1.303 1.395-2.147 1.953-0.844 0.55-1.815 0.987-2.914 1.31v0l5.387 9.51-6.996-0.571-4.636-8.43-0.168-0.014-8.642-0.726-0.655 8.018zM125.864 265.318l8.752 0.714c1.085 0.089 2.041 0.04 2.869-0.145 0.834-0.185 1.541-0.483 2.121-0.896 0.586-0.412 1.042-0.934 1.366-1.566 0.325-0.633 0.52-1.349 0.585-2.15v0c0.129-1.574-0.314-2.836-1.329-3.784-1.008-0.948-2.6-1.511-4.776-1.689v0l-8.752-0.715zM157.107 278.222l-5.65-27.684 14.594-2.978c2.127-0.434 4.017-0.579 5.672-0.436 1.649 0.145 3.075 0.544 4.279 1.199 1.205 0.662 2.189 1.565 2.951 2.711 0.756 1.146 1.294 2.507 1.615 4.08v0c0.301 1.476 0.329 2.89 0.083 4.241-0.238 1.356-0.774 2.597-1.608 3.722-0.835 1.119-1.981 2.094-3.436 2.926-1.449 0.831-3.237 1.463-5.365 1.898v0l-9.017 1.819 1.501 7.356zM160.236 264.872l9.12-1.861c1.06-0.216 1.964-0.533 2.713-0.95 0.742-0.416 1.335-0.913 1.779-1.491 0.444-0.578 0.729-1.226 0.853-1.942 0.13-0.724 0.112-1.493-0.054-2.306v0c-0.334-1.639-1.128-2.808-2.382-3.507-1.254-0.699-2.944-0.832-5.07-0.398v0l-9.121 1.861zM193.716 268.11l-13.056-25.058 12.749-6.643c1.919-1 3.689-1.668 5.311-2.004 1.621-0.336 3.095-0.366 4.42-0.091 1.326 0.275 2.499 0.838 3.519 1.691 1.021 0.853 1.891 1.971 2.613 3.354v0c0.485 0.93 0.833 1.871 1.044 2.824 0.215 0.958 0.274 1.912 0.177 2.86-0.1 0.943-0.359 1.875-0.777 2.796-0.421 0.915-1.01 1.803-1.768 2.661v0l9.625 5.179-6.224 3.243-8.415-4.664-0.15 0.078-7.699 3.99 3.717 7.134zM192.794 253.929l7.787-4.058c0.965-0.503 1.749-1.053 2.35-1.651 0.607-0.601 1.047-1.23 1.318-1.888 0.277-0.661 0.384-1.345 0.322-2.054-0.062-0.708-0.279-1.419-0.65-2.131v0c-0.73-1.401-1.777-2.232-3.141-2.495-1.358-0.265-3.006 0.107-4.942 1.116v0l-7.788 4.058zM225.075 249.537l-17.681-22.04 4.504-3.613 17.681 22.039zM237.01 238.1l-21.752-18.033 3.66-4.415 18.338-7.675-7.098-5.884 3.654-4.407 21.752 18.033-3.654 4.408-9.979-8.274-18.292 7.713 17.031 14.119zM264.241 196.575l-21.428-8.964-4.023 9.617-4.638-1.94 10.262-24.533 4.639 1.94-4.027 9.626 21.428 8.963zM3.354 142.866c0-5.961 4.832-10.793 10.793-10.794 5.961 0 10.793 4.832 10.794 10.794 0 5.961-4.832 10.793-10.794 10.793-5.961 0-10.793-4.832-10.793-10.793zM254.25 142.866c0-5.961 4.832-10.793 10.794-10.794 5.961 0 10.793 4.832 10.793 10.794 0 5.961-4.832 10.793-10.793 10.793-5.961 0-10.793-4.832-10.794-10.793z" fill="#0080ff" data-fill-palette-color="primary"></path></svg></g></svg></g></svg></g><g></g></svg></g></svg><rect width="280" height="280" fill="none" stroke="none" visibility="hidden"></rect></g></svg></g></svg>